<mxfile host="app.diagrams.net" modified="2021-03-24T18:07:44.272Z" agent="5.0 (Macintosh; Intel Mac OS X 10_15_7) AppleWebKit/537.36 (KHTML, like Gecko) Chrome/89.0.4389.90 Safari/537.36" etag="tf4nXvLhadEcsE6Z-itA" version="14.5.1" type="github">
  <diagram id="BCKGS2-ww9m77HXnoR--" name="Page-1">
    <mxGraphModel dx="946" dy="545" grid="1" gridSize="10" guides="1" tooltips="1" connect="1" arrows="1" fold="1" page="1" pageScale="1" pageWidth="850" pageHeight="1100" math="0" shadow="0">
      <root>
        <mxCell id="0" />
        <mxCell id="1" parent="0" />
        <mxCell id="1XZDgo-8ve5yJCQsIrYW-1" value="Start" style="ellipse;whiteSpace=wrap;html=1;" vertex="1" parent="1">
          <mxGeometry x="130" width="120" height="80" as="geometry" />
        </mxCell>
        <mxCell id="1XZDgo-8ve5yJCQsIrYW-2" value="Set howmanyEntered to 0" style="whiteSpace=wrap;html=1;aspect=fixed;" vertex="1" parent="1">
          <mxGeometry x="140" y="120" width="100" height="100" as="geometry" />
        </mxCell>
        <mxCell id="1XZDgo-8ve5yJCQsIrYW-4" value="" style="endArrow=classic;html=1;" edge="1" parent="1">
          <mxGeometry width="50" height="50" relative="1" as="geometry">
            <mxPoint x="189.5" y="80" as="sourcePoint" />
            <mxPoint x="190" y="120" as="targetPoint" />
          </mxGeometry>
        </mxCell>
        <mxCell id="1XZDgo-8ve5yJCQsIrYW-5" value="" style="endArrow=classic;html=1;" edge="1" parent="1">
          <mxGeometry width="50" height="50" relative="1" as="geometry">
            <mxPoint x="190" y="220" as="sourcePoint" />
            <mxPoint x="190" y="260" as="targetPoint" />
          </mxGeometry>
        </mxCell>
        <mxCell id="1XZDgo-8ve5yJCQsIrYW-6" value="Set total to 0" style="whiteSpace=wrap;html=1;aspect=fixed;" vertex="1" parent="1">
          <mxGeometry x="150" y="260" width="80" height="80" as="geometry" />
        </mxCell>
      </root>
    </mxGraphModel>
  </diagram>
</mxfile>
